# xmcd
#
# Track frame offsets:
# 150
# 24742
# 37382
# 56415
# 72187
# 88805
# 98340
# 121112
# 134322
# 148462
# 182592
# 198882
# 223027
# 241440
# 267675
# 283405
# 300090
#
# Disc length: 4397 seconds
#
# Revision: 1
# Processed by: cddbd v1.5.2PL0 Copyright (c) Steve Scherf et al.
# Submitted via: Axialis_AX_CDPlayer 2.6
#
DISCID=04112b11
DTITLE=Various Artist - Home of the Blues
DYEAR=1997
DGENRE=Blues
TTITLE0=Snapper Mitchum - Born in the Ghetto
TTITLE1=King Biscuit Boy with The Ronnie Hawkins Band - Get it right
TTITLE2=Muddy Waters - Rollin' and tumblin'
TTITLE3=Isaac Scott - Don´t let my baby ride
TTITLE4=Billy Boy Arnold - Back door friend
TTITLE5=Tommy Tucker - Ooh Baby
TTITLE6=Jimmy Johnson - Things i used to do
TTITLE7=Earl Hooker - Blues for dancers
TTITLE8=Sonny Blake - Bring it on home
TTITLE9=Albert Collins - I´ve got a mind to travel
TTITLE10=The Paul Delay Band - All my money gone
TTITLE11=Buddy Guy and Junior Wells - Country Girl
TTITLE12=Lacy Gibson - Whop that thang around me
TTITLE13=The Mighty Houserockers - Monday morning blues
TTITLE14=Clarence Edwards - Rocky mountains
TTITLE15=Buddy Reed - Kiss my ass
TTITLE16=Eddie Clearwater - Came up the hard way
EXTD=Also know: The Massive Sounds of Red Lightnin
EXTT0=
EXTT1=
EXTT2=
EXTT3=
EXTT4=
EXTT5=
EXTT6=
EXTT7=
EXTT8=
EXTT9=
EXTT10=
EXTT11=
EXTT12=
EXTT13=
EXTT14=
EXTT15=
EXTT16=
PLAYORDER=
